<svg width="42" height="44" viewBox="0 0 42 44" fill="none" xmlns="http://www.w3.org/2000/svg">
<path d="M6.42186 41.677L2.00423 20.6499C1.76479 19.5103 2.39998 18.3742 3.31242 18.0743L16.136 13.8588C16.1781 13.845 16.2625 13.8354 16.4145 13.8727C16.5653 13.9097 16.7495 13.9847 16.9675 14.0992C17.4068 14.33 17.9021 14.6762 18.4335 15.0487L18.4509 15.0609C18.9616 15.419 19.5066 15.801 20.0085 16.0647C20.2639 16.1989 20.5282 16.3133 20.7883 16.3771C21.0472 16.4407 21.336 16.4623 21.6173 16.3698L29.8075 13.6775C30.6647 13.3956 31.5967 13.9292 31.8305 15.0419L35.4005 32.0347C35.64 33.1743 35.0047 34.3105 34.0922 34.6104L8.44528 43.0413C7.58788 43.3232 6.6556 42.7896 6.42186 41.677Z" fill="#B5179E" stroke="#B5179E"/>
<path d="M4.83414 26.8811L10.7321 8.72926L37.3047 14.3775L31.4068 32.5293L4.83414 26.8811Z" fill="white" stroke="#E2E5E8"/>
<path d="M36.5033 31.468L40.4082 13.0972C40.5554 12.4044 40.4397 11.7349 39.9665 11.3088C39.4933 10.8827 38.8154 10.8375 38.1418 11.0563L25.7836 15.0717C25.5454 15.1491 25.3122 15.3004 25.0993 15.4669C24.8801 15.6384 24.6502 15.8521 24.4178 16.0865C23.9562 16.5521 23.4513 17.1336 22.9608 17.6986L22.9533 17.7072C22.454 18.2822 21.9696 18.8398 21.5337 19.2795C21.3162 19.4988 21.1192 19.6802 20.9461 19.8156C20.7667 19.9559 20.6423 20.0235 20.569 20.0473L12.676 22.6119C11.9994 22.8317 11.3586 23.299 10.8575 23.8556C10.3564 24.4123 9.95876 25.0984 9.81085 25.7943L6.6552 40.6405C6.50795 41.3332 6.62374 42.0027 7.09698 42.4288C7.57021 42.8549 8.24813 42.9001 8.92171 42.6812L33.6377 34.6505C34.3144 34.4307 34.9552 33.9633 35.4564 33.4067C35.9576 32.8501 36.3554 32.1639 36.5033 31.468Z" fill="url(#paint0_linear_86_2)" stroke="#B5179E"/>
<defs>
<linearGradient id="paint0_linear_86_2" x1="23.5317" y1="11.4272" x2="23.5317" y2="42.3104" gradientUnits="userSpaceOnUse">
<stop stop-color="#F72585"/>
<stop offset="1" stop-color="#B5179E"/>
</linearGradient>
</defs>
</svg>
