<svg width="41" height="34" viewBox="0 0 41 34" fill="none" xmlns="http://www.w3.org/2000/svg">
<g opacity="0.5">
<path d="M5.75331 31.7635L1.33568 10.7364C1.09624 9.59674 1.73143 8.46072 2.64387 8.16077L15.4675 3.94527C15.5095 3.93145 15.594 3.92188 15.746 3.95916C15.8968 3.99616 16.0809 4.07119 16.299 4.18572C16.7382 4.41646 17.2336 4.76269 17.7649 5.1352L17.7824 5.14741C18.293 5.50543 18.838 5.88752 19.3399 6.15116C19.5954 6.28533 19.8596 6.39983 20.1197 6.46362C20.3786 6.52713 20.6675 6.54875 20.9487 6.4563L29.1389 3.76393C29.9962 3.48213 30.9281 4.01568 31.1619 5.12841L34.732 22.1212C34.9714 23.2608 34.3361 24.3969 33.4236 24.6969L7.77673 33.1278C6.91933 33.4096 5.98705 32.876 5.75331 31.7635Z" fill="#B5179E" stroke="#B5179E"/>
<path d="M35.8348 21.5544L39.7396 3.18363C39.8869 2.4909 39.7711 1.82141 39.2979 1.39528C38.8247 0.969136 38.1468 0.923946 37.4733 1.1428L25.1151 5.15821C24.8769 5.23561 24.6436 5.38684 24.4308 5.55338C24.2116 5.72485 23.9817 5.93856 23.7492 6.17302C23.2876 6.6386 22.7828 7.22009 22.2922 7.78508L22.2847 7.79371C21.7855 8.36868 21.301 8.92629 20.8651 9.36595C20.6477 9.5853 20.4507 9.76663 20.2776 9.90206C20.0982 10.0424 19.9737 10.1099 19.9004 10.1338L12.0075 12.6983C11.3308 12.9182 10.6901 13.3855 10.189 13.9421C9.68787 14.4987 9.29022 15.1849 9.1423 15.8808L5.98665 30.7269C5.8394 31.4197 5.9552 32.0892 6.42843 32.5153C6.90166 32.9414 7.57958 32.9866 8.25316 32.7677L32.9692 24.737C33.6458 24.5171 34.2867 24.0498 34.7879 23.4932C35.2891 22.9365 35.6868 22.2504 35.8348 21.5544Z" fill="url(#paint0_linear_85_2)" stroke="#B5179E"/>
</g>
<defs>
<linearGradient id="paint0_linear_85_2" x1="22.8631" y1="1.51367" x2="22.8631" y2="32.3968" gradientUnits="userSpaceOnUse">
<stop stop-color="#F72585"/>
<stop offset="1" stop-color="#B5179E"/>
</linearGradient>
</defs>
</svg>
