<svg width="43" height="49" viewBox="0 0 43 49" fill="none" xmlns="http://www.w3.org/2000/svg">
<path d="M5.67021 46.7775L1.25258 25.7504C1.01314 24.6108 1.64833 23.4747 2.56078 23.1748L15.3844 18.9593C15.4264 18.9455 15.5109 18.9359 15.6629 18.9732C15.8137 19.0102 15.9978 19.0852 16.2159 19.1997C16.6552 19.4305 17.1505 19.7767 17.6818 20.1492L17.6993 20.1614C18.2099 20.5194 18.7549 20.9015 19.2568 21.1652C19.5123 21.2993 19.7765 21.4138 20.0366 21.4776C20.2955 21.5411 20.5844 21.5628 20.8656 21.4703L29.0558 18.7779C29.9131 18.4961 30.845 19.0297 31.0788 20.1424L34.6489 37.1352C34.8883 38.2748 34.253 39.4109 33.3405 39.7109L7.69363 48.1418C6.83623 48.4237 5.90395 47.89 5.67021 46.7775Z" fill="#B5179E" stroke="#B5179E"/>
<path d="M35.7517 36.5684L39.6565 18.1976C39.8038 17.5049 39.688 16.8354 39.2148 16.4093C38.7416 15.9832 38.0637 15.938 37.3902 16.1568L25.032 20.1722C24.7938 20.2496 24.5605 20.4009 24.3477 20.5674C24.1285 20.7389 23.8986 20.9526 23.6661 21.187C23.2045 21.6526 22.6997 22.2341 22.2091 22.7991L22.2016 22.8077C21.7024 23.3827 21.2179 23.9403 20.782 24.38C20.5646 24.5993 20.3676 24.7807 20.1945 24.9161C20.0151 25.0564 19.8906 25.124 19.8173 25.1478L11.9244 27.7124C11.2477 27.9322 10.607 28.3995 10.1059 28.9561C9.60477 29.5128 9.20712 30.1989 9.0592 30.8948L5.90355 45.741C5.7563 46.4337 5.8721 47.1032 6.34533 47.5293C6.81856 47.9554 7.49648 48.0006 8.17006 47.7817L32.8861 39.751C33.5627 39.5312 34.2036 39.0638 34.7048 38.5072C35.206 37.9506 35.6038 37.2644 35.7517 36.5684Z" fill="url(#paint0_linear_91_2)" stroke="#C11A9A"/>
<mask id="mask0_91_2" style="mask-type:alpha" maskUnits="userSpaceOnUse" x="6" y="16" width="34" height="32">
<path d="M38.6784 17.9898L34.7735 36.3606C34.6707 36.8444 34.3765 37.3773 33.9616 37.8381C33.5468 38.2988 33.0475 38.6471 32.5771 38.8L7.86104 46.8307C7.38753 46.9845 7.12861 46.889 7.01446 46.7862C6.90031 46.6834 6.77818 46.4359 6.8817 45.9489L10.0373 31.1027C10.1402 30.6188 10.4343 30.0859 10.8491 29.6252C11.2638 29.1645 11.763 28.8163 12.2334 28.6634L20.1263 26.0989C20.3645 26.0215 20.5978 25.8702 20.8107 25.7037C21.0298 25.5322 21.2597 25.3185 21.4922 25.0841C21.9538 24.6185 22.4586 24.037 22.9492 23.4721L22.9567 23.4634C23.4559 22.8884 23.9404 22.3308 24.3763 21.8911C24.5938 21.6718 24.7907 21.4904 24.9638 21.355C25.1432 21.2147 25.2677 21.1471 25.341 21.1233L37.6992 17.1079C38.1727 16.954 38.4315 17.0496 38.5456 17.1524C38.6598 17.2552 38.7819 17.5027 38.6784 17.9898Z" fill="#D9D9D9" stroke="#4C6EC4"/>
</mask>
<g mask="url(#mask0_91_2)">
<rect x="-0.76622" y="25.2557" width="42.8002" height="15.4591" transform="rotate(-18.0285 -0.76622 25.2557)" fill="url(#paint1_linear_91_2)"/>
</g>
<path d="M29.6523 0.173691L42.7588 13.2802L29.6523 26.3867V19.9579C22.9999 19.6789 19.3058 21.0357 13.1146 26.2145C15.5491 9.6528 27.3001 7.08249 29.6523 6.73197V0.173691Z" fill="url(#paint2_linear_91_2)"/>
<defs>
<linearGradient id="paint0_linear_91_2" x1="22.78" y1="16.5277" x2="22.78" y2="47.4109" gradientUnits="userSpaceOnUse">
<stop stop-color="#F42586"/>
<stop offset="1" stop-color="#B9189D"/>
</linearGradient>
<linearGradient id="paint1_linear_91_2" x1="33.1528" y1="25.7264" x2="26.9718" y2="35.0481" gradientUnits="userSpaceOnUse">
<stop stop-color="#B5179E"/>
<stop offset="1" stop-color="#B5179E" stop-opacity="0"/>
</linearGradient>
<linearGradient id="paint2_linear_91_2" x1="35.4419" y1="17.6541" x2="9.59701" y2="20.9188" gradientUnits="userSpaceOnUse">
<stop stop-color="#FFC400"/>
<stop offset="1" stop-color="#BE8508"/>
</linearGradient>
</defs>
</svg>
