<svg width="35" height="35" viewBox="0 0 35 35" fill="none" xmlns="http://www.w3.org/2000/svg">
<path d="M23.9325 5.5595C23.9325 5.02249 24.2198 4.58716 24.5742 4.58716H30.9868C31.3412 4.58716 31.6285 5.02249 31.6285 5.5595V28.3967C31.6285 28.9337 31.3412 29.369 30.9868 29.369H24.5742C24.2198 29.369 23.9325 28.9337 23.9325 28.3967V5.5595Z" fill="url(#paint0_linear_91_14)"/>
<path d="M14.5658 14.0179C14.5658 13.6717 14.8531 13.391 15.2075 13.391H21.62C21.9744 13.391 22.2618 13.6717 22.2618 14.0179V28.7421C22.2618 29.0884 21.9744 29.369 21.62 29.369H15.2075C14.8531 29.369 14.5658 29.0884 14.5658 28.7421V14.0179Z" fill="url(#paint1_linear_91_14)"/>
<path d="M5.0423 23.2067C5.0423 23.0677 5.32961 22.955 5.68402 22.955H12.0966C12.451 22.955 12.7383 23.0677 12.7383 23.2067V29.1174C12.7383 29.2564 12.451 29.369 12.0966 29.369H5.68402C5.32961 29.369 5.0423 29.2564 5.0423 29.1174V23.2067Z" fill="url(#paint2_linear_91_14)"/>
<path d="M2.80469 29.1067C2.80469 28.5697 3.07728 28.1344 3.41355 28.1344H33.0662C33.4025 28.1344 33.675 28.5697 33.675 29.1067V31.0425C33.675 31.5795 33.4025 32.0148 33.0662 32.0148H3.41355C3.07729 32.0148 2.80469 31.5795 2.80469 31.0425V29.1067Z" fill="url(#paint3_linear_91_14)"/>
<defs>
<linearGradient id="paint0_linear_91_14" x1="29.7156" y1="4.58716" x2="20.7904" y2="25.5963" gradientUnits="userSpaceOnUse">
<stop stop-color="#F42586"/>
<stop offset="1" stop-color="#C11A99"/>
</linearGradient>
<linearGradient id="paint1_linear_91_14" x1="20.3488" y1="13.391" x2="16.2747" y2="28.2653" gradientUnits="userSpaceOnUse">
<stop stop-color="#EF2488"/>
<stop offset="1" stop-color="#BE199B"/>
</linearGradient>
<linearGradient id="paint2_linear_91_14" x1="10.8254" y1="22.955" x2="10.128" y2="29.2972" gradientUnits="userSpaceOnUse">
<stop stop-color="#F12487"/>
<stop offset="1" stop-color="#BF1A9A"/>
</linearGradient>
<linearGradient id="paint3_linear_91_14" x1="18.2399" y1="27.737" x2="18.2399" y2="37.388" gradientUnits="userSpaceOnUse">
<stop stop-color="#D3DDF6"/>
<stop offset="1" stop-color="#AAB3C9"/>
</linearGradient>
</defs>
</svg>
