<svg width="34" height="34" viewBox="0 0 34 34" fill="none" xmlns="http://www.w3.org/2000/svg">
<path d="M15.0804 20.6577C17.4219 19.4314 19.0195 16.9781 19.0195 14.1517C19.0195 10.0982 15.7335 6.81223 11.68 6.81223C7.6265 6.81223 4.34048 10.0982 4.34048 14.1517C4.34048 16.9287 5.88273 19.3455 8.15742 20.5922C3.57124 21.0508 1.31705 22.7604 1.31705 27.062C1.31705 27.2663 1.32213 27.4691 1.33231 27.6701C1.33231 27.6701 6.68082 29.4882 11.2895 29.4882C15.8982 29.4882 22.0242 27.6701 22.0242 27.6701C22.0367 27.4691 22.043 27.2663 22.043 27.062C22.043 22.9435 19.4843 21.2011 15.0804 20.6577Z" fill="url(#paint0_linear_91_23)"/>
<path fill-rule="evenodd" clip-rule="evenodd" d="M29.6595 11.8513C29.6595 14.6777 28.0619 17.131 25.7204 18.3573C30.1243 18.9006 32.6829 20.6431 32.6829 24.7616C32.6829 24.9659 32.6767 25.1686 32.6641 25.3697C32.6641 25.3697 28.2118 26.6911 24.0429 27.0808C24.043 27.0745 24.043 27.0683 24.043 27.062C24.043 24.7743 23.3197 23.0056 21.8633 21.7594C20.9585 20.9852 19.8217 20.4577 18.52 20.1048C20.0618 18.5921 21.0195 16.4842 21.0195 14.1517C21.0195 11.0722 19.3504 8.38259 16.8674 6.93815C18.2108 5.4483 20.156 4.51178 22.32 4.51178C26.3735 4.51178 29.6595 7.79779 29.6595 11.8513Z" fill="#B5179E"/>
<defs>
<linearGradient id="paint0_linear_91_23" x1="11.68" y1="6.81223" x2="11.68" y2="29.4882" gradientUnits="userSpaceOnUse">
<stop stop-color="#F22487"/>
<stop offset="1" stop-color="#C51B98"/>
</linearGradient>
</defs>
</svg>
